<?xml version="1.0" encoding="UTF-8"?>
<svg version="1.1" xmlns="http://www.w3.org/2000/svg" width="128" height="128">
<path d="M0 0 C35.64 0 71.28 0 108 0 C111.37512892 7.87530082 111.37512892 7.87530082 111.38095093 11.22488403 C111.3894104 11.98455475 111.39786987 12.74422546 111.40658569 13.5269165 C111.400513 14.33546082 111.39444031 15.14400513 111.38818359 15.97705078 C111.39344055 16.84786285 111.39869751 17.71867493 111.40411377 18.61587524 C111.41724892 21.47587355 111.40860029 24.33530918 111.3984375 27.1953125 C111.40045973 29.19115302 111.40337242 31.18699281 111.40713501 33.18283081 C111.41154926 37.35714787 111.40515485 41.53127185 111.39111328 45.70556641 C111.37399978 51.05333333 111.38388206 56.40064925 111.40183067 61.74839973 C111.41267381 65.86623531 111.4092201 69.98396402 111.4014473 74.10180283 C111.39944791 76.07376026 111.40189537 78.04572744 111.40888596 80.01767349 C111.41651154 82.77262325 111.40488167 85.52684286 111.38818359 88.28173828 C111.39425629 89.09433105 111.40032898 89.90692383 111.40658569 90.74414062 C111.35535406 95.31064786 110.9470756 98.42501955 108 102 C105.25417822 102.91527393 103.62871333 103.12911801 100.80056763 103.14044189 C99.51785477 103.14900711 99.51785477 103.14900711 98.20922852 103.15774536 C97.27409424 103.15886322 96.33895996 103.15998108 95.37548828 103.16113281 C94.38821747 103.16609772 93.40094666 103.17106262 92.38375854 103.17617798 C89.11260282 103.19080203 85.84149557 103.19760171 82.5703125 103.203125 C80.29971312 103.20887585 78.02911375 103.21463359 75.7585144 103.22039795 C70.99542006 103.23090835 66.2323426 103.2367509 61.46923828 103.24023438 C55.36361669 103.24572193 49.25821779 103.26975556 43.15266609 103.29820633 C38.46181585 103.31682144 33.7710194 103.32203769 29.08013535 103.32357025 C26.82905738 103.32659939 24.57798041 103.33463666 22.32693863 103.34775543 C19.17888641 103.36479352 16.03138029 103.36294108 12.88330078 103.35644531 C11.95221497 103.3656601 11.02112915 103.37487488 10.06182861 103.3843689 C1.37958404 103.32819582 1.37958404 103.32819582 -2 100 C-3.2948922 94.91459086 -3.15352232 89.6504896 -3.16113281 84.421875 C-3.16609772 83.59328979 -3.17106262 82.76470459 -3.17617798 81.91101074 C-3.19069346 79.19066517 -3.19758196 76.47037781 -3.203125 73.75 C-3.20595238 72.8163562 -3.20877975 71.8827124 -3.21169281 70.92077637 C-3.22663853 65.98494182 -3.23589852 61.04913617 -3.24023438 56.11328125 C-3.24572795 51.02582324 -3.26978785 45.93863165 -3.29820633 40.85125732 C-3.31685587 36.92723825 -3.32203943 33.00328327 -3.32357025 29.07922363 C-3.32658948 27.20380183 -3.33459329 25.32838097 -3.34775543 23.45300293 C-3.36487282 20.82783801 -3.36292248 18.20332359 -3.35644531 15.578125 C-3.3656601 14.81012573 -3.37487488 14.04212646 -3.3843689 13.25085449 C-3.37879974 12.52773071 -3.37323059 11.80460693 -3.36749268 11.05957031 C-3.36895924 10.44092102 -3.3704258 9.82227173 -3.3719368 9.18487549 C-3 7 -3 7 0 0 Z " fill="#4E4F4E" transform="translate(10,14)"/>
<path d="M0 0 C35.64 0 71.28 0 108 0 C111 7 111 7 110.6875 9.4375 C110.460625 9.953125 110.23375 10.46875 110 11 C109.54463364 10.35067505 109.08926727 9.7013501 108.62010193 9.03234863 C104.65108519 5.95367995 100.97149107 6.44072797 96.07836914 6.48242188 C95.07144516 6.4754126 94.06452118 6.46840332 93.02708435 6.46118164 C89.6961617 6.44356626 86.36608766 6.45523833 83.03515625 6.46875 C80.72114397 6.46605591 78.40713279 6.46217418 76.09312439 6.45715332 C71.24174224 6.45125327 66.39065457 6.45983708 61.53930664 6.47851562 C55.32035122 6.50129233 49.10208677 6.48819282 42.88315678 6.46422577 C38.10390519 6.44977086 33.32481736 6.45437269 28.54556084 6.46473694 C26.25262813 6.46740571 23.95968057 6.4641292 21.66676521 6.45481873 C18.46111819 6.44466003 15.25658915 6.46014646 12.05102539 6.48242188 C11.10280914 6.47432495 10.1545929 6.46622803 9.17764282 6.45788574 C4.81813123 6.51400787 2.61017491 6.60357635 -1.12818909 9.03234863 C-1.74588669 9.68167358 -2.36358429 10.33099854 -3 11 C-2.50639991 6.72213252 -1.95216435 3.90432869 0 0 Z " fill="#5F5F5F" transform="translate(10,14)"/>
<path d="M0 0 C0.56763565 0.32476192 1.1352713 0.64952385 1.72010803 0.98412704 C4.19542154 2.08707582 5.78538086 2.25133972 8.47827148 2.25396729 C9.36988983 2.25960693 10.26150818 2.26524658 11.18014526 2.27105713 C12.15065826 2.26700867 13.12117126 2.26296021 14.12109375 2.25878906 C15.66314987 2.26404602 15.66314987 2.26404602 17.23635864 2.26940918 C20.63680765 2.27821642 24.03704885 2.27238079 27.4375 2.265625 C29.79874715 2.26697194 32.15999403 2.26891271 34.52124023 2.27142334 C39.47089273 2.27437324 44.42047307 2.2700812 49.37011719 2.26074219 C55.71902714 2.2493478 62.067768 2.25590798 68.41667175 2.26788712 C73.29277829 2.27510928 78.16884465 2.27281613 83.04495239 2.26763153 C85.38615946 2.26629603 87.72737017 2.26793929 90.068573 2.27259064 C93.33878259 2.27766162 96.60871717 2.26993733 99.87890625 2.25878906 C101.33467575 2.26486176 101.33467575 2.26486176 102.81985474 2.27105713 C104.15728226 2.26259766 104.15728226 2.26259766 105.52172852 2.25396729 C106.29452652 2.25321323 107.06732452 2.25245918 107.86354065 2.25168228 C110.27227944 1.96792454 111.90730044 1.19729819 114 0 C112.52389926 5.65838619 112.52389926 5.65838619 110.19185543 7.17901897 C107.85723109 8.0534755 106.16516765 8.25382165 103.68031311 8.26069641 C102.82379654 8.26778122 101.96727997 8.27486603 101.08480835 8.28216553 C100.15326935 8.27968811 99.22173035 8.27721069 98.26196289 8.2746582 C97.27454605 8.27976913 96.28712921 8.28488007 95.26979065 8.29014587 C92.00401762 8.30405208 88.73845538 8.30308434 85.47265625 8.30078125 C83.20348532 8.30466753 80.93431513 8.30900206 78.66514587 8.31376648 C73.90800621 8.32123085 69.15094076 8.32093575 64.39379883 8.31567383 C58.29603258 8.30987815 52.19856996 8.32681174 46.10085392 8.3500185 C41.41428347 8.36474615 36.72778631 8.36562886 32.04119682 8.36250877 C29.79291622 8.36302245 27.54463156 8.36826875 25.29637337 8.37832069 C22.15319171 8.3906491 19.01060371 8.38391476 15.86743164 8.37231445 C14.93791687 8.37995819 14.0084021 8.38760193 13.05072021 8.39547729 C8.26385775 8.35640464 4.81618524 8.24522219 1 5 C0.1875 2.3125 0.1875 2.3125 0 0 Z " fill="#040404" transform="translate(7,109)"/>
<path d="M0 0 C1.32 0 2.64 0 4 0 C4 1.32 4 2.64 4 4 C6.97 4.495 6.97 4.495 10 5 C10.33 5.99 10.66 6.98 11 8 C8.69 8 6.38 8 4 8 C4 9.32 4 10.64 4 12 C4.763125 11.938125 5.52625 11.87625 6.3125 11.8125 C9 12 9 12 10.8125 13.125 C12.57002414 15.90003811 12.46822746 17.78929745 12 21 C10.25 22.875 10.25 22.875 8 24 C6.68 24 5.36 24 4 24 C4 25.32 4 26.64 4 28 C2.68 28 1.36 28 0 28 C0 26.68 0 25.36 0 24 C-1.65 24 -3.3 24 -5 24 C-5.66 22.68 -6.32 21.36 -7 20 C-4.69 20 -2.38 20 0 20 C0 18.68 0 17.36 0 16 C-0.763125 16.0825 -1.52625 16.165 -2.3125 16.25 C-5 16 -5 16 -6.8125 14.3125 C-8.21992268 11.57172952 -8.46773289 10.04026376 -8 7 C-6.8125 5.1875 -6.8125 5.1875 -5 4 C-2.3125 3.8125 -2.3125 3.8125 0 4 C0 2.68 0 1.36 0 0 Z " fill="#55E608" transform="translate(24,28)"/>
<path d="M0 0 C33.66 0 67.32 0 102 0 C102 0.33 102 0.66 102 1 C68.34 1 34.68 1 0 1 C0 0.67 0 0.34 0 0 Z " fill="#606060" transform="translate(13,13)"/>
<path d="M0 0 C7.92 0 15.84 0 24 0 C24 1.32 24 2.64 24 4 C16.08 4 8.16 4 0 4 C0 2.68 0 1.36 0 0 Z " fill="#3F413E" transform="translate(44,56)"/>
<path d="M0 0 C7.92 0 15.84 0 24 0 C24 1.32 24 2.64 24 4 C16.08 4 8.16 4 0 4 C0 2.68 0 1.36 0 0 Z " fill="#57F802" transform="translate(44,52)"/>
<path d="M0 0 C0.33 0 0.66 0 1 0 C1 28.38 1 56.76 1 86 C0.67 86 0.34 86 0 86 C0 57.62 0 29.24 0 0 Z " fill="#4F4F4F" transform="translate(122,21)"/>
<path d="M0 0 C0.33 0 0.66 0 1 0 C1 28.38 1 56.76 1 86 C0.67 86 0.34 86 0 86 C0 57.62 0 29.24 0 0 Z " fill="#4F4F4F" transform="translate(5,21)"/>
<path d="M0 0 C0.33 0.99 0.66 1.98 1 3 C-0.75 5 -0.75 5 -3 7 C-4.32 7 -5.64 7 -7 7 C-7 5.68 -7 4.36 -7 3 C-4.69 2.01 -2.38 1.02 0 0 Z " fill="#40443D" transform="translate(35,49)"/>
<path d="M0 0 C1.485 0.99 1.485 0.99 3 2 C4.65549531 2.38499891 6.3222433 2.72793135 8 3 C8 4.32 8 5.64 8 7 C5.6875 7.25 5.6875 7.25 3 7 C1.1875 5.1875 1.1875 5.1875 0 3 C0 2.01 0 1.02 0 0 Z " fill="#40433E" transform="translate(16,41)"/>
<path d="M0 0 C2.31 0 4.62 0 7 0 C7 1.32 7 2.64 7 4 C4.03 3.505 4.03 3.505 1 3 C0.67 2.01 0.34 1.02 0 0 Z " fill="#3F413E" transform="translate(17,52)"/>
<path d="M0 0 C2.97 0.495 2.97 0.495 6 1 C6.33 1.99 6.66 2.98 7 4 C4.69 4 2.38 4 0 4 C0 2.68 0 1.36 0 0 Z " fill="#3F433E" transform="translate(28,36)"/>
<path d="" fill="#606060" transform="translate(0,0)"/>
<path d="" fill="#5F5F5F" transform="translate(0,0)"/>
<path d="" fill="#000000" transform="translate(0,0)"/>
<path d="" fill="#000000" transform="translate(0,0)"/>
<path d="" fill="#000000" transform="translate(0,0)"/>
<path d="" fill="#000000" transform="translate(0,0)"/>
<path d="" fill="#838383" transform="translate(0,0)"/>
<path d="" fill="#838383" transform="translate(0,0)"/>
<path d="" fill="#606060" transform="translate(0,0)"/>
<path d="" fill="#606060" transform="translate(0,0)"/>
<path d="" fill="#606060" transform="translate(0,0)"/>
<path d="" fill="#606060" transform="translate(0,0)"/>
</svg>
