<?xml version="1.0" encoding="UTF-8"?>
<svg id="layer" width="600.2" height="240" version="1.1" viewBox="0 0 600.2 240" xml:space="preserve" xmlns="http://www.w3.org/2000/svg" xmlns:cc="http://creativecommons.org/ns#" xmlns:dc="http://purl.org/dc/elements/1.1/" xmlns:rdf="http://www.w3.org/1999/02/22-rdf-syntax-ns#"><metadata id="metadata35"><rdf:RDF><cc:Work rdf:about=""><dc:format>image/svg+xml</dc:format><dc:type rdf:resource="http://purl.org/dc/dcmitype/StillImage"/><dc:title/></cc:Work></rdf:RDF></metadata>
<style id="style2" type="text/css">
	.st0{fill:#005E85;}
</style>
<g id="g6" transform="translate(-20.4,-201.8)">
	<path id="path4" class="st0" d="m162.3 305.1c31.5 0.2 55.1-4.8 72.8-10.8v-0.4c-4.8 0.6-15.4 2.3-29.4 2.3-15 0-27.3-1.5-38.9-3.4l3.2-8.6c7.4 0.7 15.2 1.2 23.6 1.2 31.3 0 53.8-4.8 71.6-10.8v-0.6c-4.8 0.6-15.4 2.3-29.4 2.3-24.5 0-41.8-4.1-60.4-7l2.8-7.7c14.1 2.1 28.6 3.9 45.5 3.9 31.3 0 53.8-4.9 71.6-10.9v-0.4c-4.8 0.6-15.4 2.3-29.4 2.3-33.7 0-53.6-7.6-82.4-9.6l16.6-45.1-50.5 15.4-9.9 26.9c1.9-0.2 4.9-0.4 6.6-0.5l7.6-20.6 30.2-7.1-11.1 30.6c-48.7-0.4-82.6 9-92.1 11.6v0.6c7.6-1.3 22-3.1 39.5-3.1s32.6 2.1 47.6 4.4l-2.9 7.8c-7.7-1-15.8-1.6-25-1.6-47.5 0-80 9-89.5 11.7v0.6c7.6-1.4 22-3.2 39.5-3.2 25.9 0 46.4 4.6 69.4 7.6l-3 8c-14.4-2.5-28.6-5-46.6-5-47.5 0-80 9-89.5 11.7v0.6c7.6-1.4 22-3.1 39.5-3.1 33.9 0 58.5 7.9 91.5 9.6l-12.8 34.7-19.6-21.7 4.5-12.2c-1.2-0.2-4.5-0.7-6.1-0.9l-5.7 15.6 30.3 39.2z" fill="#005e85"/>
</g>
<polygon id="polygon8" class="st0" transform="translate(-20.4,-201.8)" points="211.9 364.4 204 385.6 235.1 385.6 229.6 400.7 198.4 400.7 183.1 441.8 164.3 441.8 198.8 349.4 253.6 349.4 248 364.4" fill="#005e85"/>
<polygon id="polygon10" class="st0" transform="translate(-20.4,-201.8)" points="271.9 370.4 245.3 441.8 227 441.8 253.5 370.4" fill="#005e85"/>
<polygon id="polygon12" class="st0" transform="translate(-20.4,-201.8)" points="292.2 370.4 310.1 370.4 288.9 427.4 310.9 427.4 305.5 441.8 265.6 441.8" fill="#005e85"/>
<polygon id="polygon14" class="st0" transform="translate(-20.4,-201.8)" points="386.9 370.4 381.7 384.2 354.5 384.2 349.6 397.5 375.1 397.5 369.9 411.5 344.4 411.5 338.5 427.3 369.1 427.3 363.7 441.8 315.4 441.8 341.9 370.4" fill="#005e85"/>
<polygon id="polygon16" class="st0" transform="translate(-20.4,-201.8)" points="533 370.4 527.8 384.2 500.6 384.2 495.7 397.5 521.2 397.5 516 411.5 490.5 411.5 484.7 427.3 515.2 427.3 509.8 441.8 461.5 441.8 488 370.4" fill="#005e85"/>
<g id="g20" transform="translate(-20.4,-201.8)">
	<path id="path18" class="st0" d="m440.8 441.8h-15.7l-5-44.3c-1.2-11.3-1.4-16.2-1.2-19.5-1.2 4.3-2.3 9-5.7 18.5l-16.2 45.3h-18.4l34.3-91.9h16.8l4.9 38.6c1.3 9.4 2.2 16.7 1.9 20.4 1.1-4 2.6-6.9 5.9-16.1l16.3-42.9h16.3z" fill="#005e85"/>
</g>
<polygon id="polygon22" class="st0" transform="translate(-20.4,-201.8)" points="550.7 441.8 532.6 441.8 554 384.5 539.2 384.5 544.5 370.4 598.4 370.4 590.7 384.5 572.1 384.5" fill="#005e85"/>
<g id="g26" transform="translate(-20.4,-201.8)">
	<path id="path24" class="st0" d="m610 378.5v-3.1h2.1c1.1 0 2.2 0.2 2.2 1.5 0 1.5-1.1 1.6-2.4 1.6zm0 1.3h1.7l2.6 4.3h1.7l-2.8-4.4c1.5-0.2 2.6-1 2.6-2.8 0-2-1.2-2.8-3.5-2.8h-3.8v10h1.5zm1.8 8c4.7 0 8.8-3.7 8.8-8.7s-4-8.6-8.8-8.6-8.8 3.7-8.8 8.6c0 5 4 8.7 8.8 8.7m-7.1-8.7c0-4.1 3.1-7.2 7.1-7.2 3.9 0 7 3.1 7 7.2 0 4.2-3.1 7.2-7 7.2-4 0-7.1-3-7.1-7.2" fill="#005e85"/>
</g>
<path id="path28" class="st0" d="m138 149.4h-2.9v8.1h-1.7v-8.1h-2.9v-1.4h7.5zm6.9 5.6 2.7-7h2.6v9.4h-1.7v-7.7l-3 7.7h-1.1l-3-7.7h-0.1v7.7h-1.7v-9.4h2.6z" fill="#005e85"/>
</svg>
